<svg xmlns="http://www.w3.org/2000/svg" viewBox="0 0 55 31.58"><defs><style>.cls-1{fill:#b83c53;}.cls-2{fill:#a1a3a6;}</style></defs><g id="Layer_2" data-name="Layer 2"><g id="Layer_1-2" data-name="Layer 1"><path class="cls-1" d="M22.66,30.91c1.46.43,4.18-.11,6.23-.53C43,27.49,54.48,19.08,54.48,11.58a7.51,7.51,0,0,0-3.82-6.36,56.34,56.34,0,0,0-7.7,1C39.82,7,30.67,9.38,37.79,14s-5.53,8.71-10.9,10.6C22.65,26.06,18.07,29.54,22.66,30.91Z"/><path class="cls-2" d="M24,31.58a5.23,5.23,0,0,1-1.5-.18C21,31,20.26,30.25,20.24,29.29c-.06-2.13,3.84-4.28,6.48-5.21l.75-.27c3.76-1.32,11.59-4.06,11.92-6.85.1-.83-.54-1.7-1.88-2.56-2.14-1.38-3.07-2.69-2.86-4C35,8,39,6.72,42.83,5.75a54.38,54.38,0,0,1,7.79-1l.17,0,.15.1A8,8,0,0,1,55,11.58C55,19.3,43.34,28,29,30.88A26.56,26.56,0,0,1,24,31.58ZM50.52,5.75a54.28,54.28,0,0,0-7.43,1c-1.75.44-7.09,1.79-7.42,3.81-.17,1.07,1.21,2.2,2.4,3,1.7,1.1,2.49,2.29,2.35,3.55C40,20.25,34,22.63,27.81,24.79l-.75.26c-3.11,1.1-5.82,3.07-5.79,4.21,0,.58.85.94,1.54,1.15h0c1.36.4,4.14-.17,6-.54C42.67,27,54,18.83,54,11.58A7,7,0,0,0,50.52,5.75Z"/><path class="cls-1" d="M43.46,1.55C38.9.24,32.81.12,26.12,1.49,12.49,4.27,1.35,12.2.57,19.48a71.89,71.89,0,0,0,16.84-1.59c6.19-1.6,12.7-2.94,8.69-5.39s-8-4.23-.53-6.73,21.07-3,21.07-3a15.37,15.37,0,0,0-3.18-1.2"/><path class="cls-2" d="M2.23,20,.56,20,0,20l.06-.55C.86,11.89,12.26,3.79,26,1,32.54-.35,38.78-.33,43.6,1.05h0A15.54,15.54,0,0,1,46.9,2.3l1.59.89-1.83.07c-.13,0-13.62.56-20.93,3-3.25,1.09-3.8,1.89-3.84,2.26-.09.81,1.83,2,3.53,3l.95.57c.4.24,1.63,1,1.47,2.06-.25,1.64-3.5,2.54-8.8,3.89l-1.5.38A71.5,71.5,0,0,1,2.23,20ZM1.17,19a71.1,71.1,0,0,0,16.11-1.59l1.5-.39c3.33-.84,7.88-2,8-3,0-.24-.33-.63-1-1l-.94-.57c-2.34-1.39-4.19-2.49-4-4C21,7.26,22.39,6.29,25.4,5.28c5.69-1.9,14.72-2.66,18.93-2.93l-1-.31h0C38.66.71,32.58.7,26.22,2,13.23,4.65,2.42,12,1.17,19Z"/></g></g></svg>